<svg xmlns="http://www.w3.org/2000/svg" version="1.1" xmlns:xlink="http://www.w3.org/1999/xlink" width="200" height="200"><svg xmlns="http://www.w3.org/2000/svg" version="1.1" xmlns:xlink="http://www.w3.org/1999/xlink" viewBox="0 0 200 200"><rect width="200" height="200" fill="url('#gradient')"></rect><defs><linearGradient id="SvgjsLinearGradient1001" gradientTransform="rotate(89 0.5 0.5)"><stop offset="0%" stop-color="#ceaa96"></stop><stop offset="100%" stop-color="#c5deb9"></stop></linearGradient></defs><g><g fill="#445272" transform="matrix(3.769325153374233,0,0,3.769325153374233,14.960548465968643,126.7992772102356)" stroke="#c8512e" stroke-width="0"><path d="M1.07-14.22L5.58-14.22L8.75-4.33L11.91-14.22L16.43-14.22L16.43 0L12.99 0L12.99-3.32L13.32-10.12L9.88 0L7.62 0L4.17-10.13L4.50-3.32L4.50 0L1.07 0L1.07-14.22ZM27.69 0L26.86-2.66L22.16-2.66L21.34 0L17.68 0L22.89-14.22L26.11-14.22L31.37 0L27.69 0ZM24.50-10.23L22.98-5.30L26.04-5.30L24.50-10.23ZM35.38-14.22L37.71-9.49L40.03-14.22L43.95-14.22L39.97-7.17L44.05 0L40.10 0L37.71-4.81L35.31 0L31.37 0L35.44-7.17L31.47-14.22L35.38-14.22Z"></path></g></g></svg><style>@media (prefers-color-scheme: light) { :root { filter: none; } }
@media (prefers-color-scheme: dark) { :root { filter: none; } }
</style></svg>